# xmcd CD database file
#
# Track frame offsets:
#	150
#	8723
#	16883
#	39407
#	75715
#	85732
#	100854
#	116542
#	140170
#	152116
#	177933
#	187559
#
# Disc length: 2976 seconds
#
# Revision: 0
# Processed by: cddbd v1.5.1PL0 Copyright (c) Steve Scherf et al.
# Submitted via: CDex 1.51
#
DISCID=840b9e0c
DTITLE=motociclica tellaci - sdreng - 2
DYEAR=2004
DGENRE=Jazz
TTITLE0=entrada libre
TTITLE1=cancion desperada
TTITLE2=mah...
TTITLE3=el cardo
TTITLE4=tonno i trancio
TTITLE5=vinello tonno ii trancio
TTITLE6=fuegini tonno iii trancio
TTITLE7=chianti
TTITLE8=svincoli coma
TTITLE9=polaca
TTITLE10=chavares
TTITLE11=masadòn
EXTD=YEAR: 2004
EXTT0=
EXTT1=
EXTT2=
EXTT3=
EXTT4=
EXTT5=
EXTT6=
EXTT7=
EXTT8=
EXTT9=
EXTT10=
EXTT11=
PLAYORDER=
